<svg version="1" xmlns="http://www.w3.org/2000/svg" width="682.667" height="682.667" viewBox="0 0 512.000000 512.000000"><path d="M237.8.5c-.1.1-3.4.5-7.3.9-3.8.3-9.7 1-13 1.6-3.3.6-7.6 1.3-9.5 1.6-10.6 1.7-41.3 10.5-43.4 12.5-.6.5-1.6.9-2.3.9-3.1 0-24.1 10.3-38.8 19.1-20.9 12.4-44.8 32.5-60.2 50.5-7.1 8.3-7.9 9.2-9.9 11.9-1 1.5-3.3 4.6-5 6.9-12.8 17.1-26.2 42.6-33.7 64.1C12 178.2 7.3 194 6.6 198c-.2 1.4-.7 3.6-1 5-4.4 19-6.5 55.7-4.4 78 3.4 35.3 15.5 72.6 33.7 104 4.3 7.4 15.9 24.6 18.3 27.2.7.7 2.9 3.4 4.8 5.8 14.2 18.5 40.4 41.5 63.3 55.6 27.8 17.2 64.5 31 93.6 35 2 .3 7.9 1.1 13.1 1.8 8.9 1.2 49.6 1.4 56 .2 1.4-.2 4.5-.7 7-1 2.5-.4 9.2-1.6 15-2.7 5.8-1.2 11.5-2.3 12.8-2.5 3.8-.7 32-10.3 37-12.5 48.1-21.6 85.9-53.1 113.5-94.5 19.8-29.9 34.3-66.8 39.2-100.4.3-1.9.7-4.4 1-5.5 1.9-9.4 2.7-46 1.3-60.5-5.9-59.3-31.9-113.8-74.5-156.5-15-15-30.9-27.3-49.8-38.7-6.6-3.9-29.8-15.8-31-15.8-.4 0-2.1-.6-3.8-1.4-9.3-4.3-36.8-12.3-47.7-14-1.9-.3-4.4-.8-5.6-1-1.2-.2-4.5-.7-7.4-1.1-2.9-.4-6.2-.9-7.4-1.2-2.3-.5-45.2-1.3-45.8-.8z"/></svg>